<?xml version="1.0" encoding="UTF-8" standalone="no"?>
<!-- Created with Inkscape (http://www.inkscape.org/) -->

<svg
   width="33.449734mm"
   height="21.599813mm"
   viewBox="0 0 33.449734 21.599813"
   version="1.1"
   id="svg1"
   inkscape:version="1.3.2 (091e20e, 2023-11-25, custom)"
   sodipodi:docname="email.svg"
   xmlns:inkscape="http://www.inkscape.org/namespaces/inkscape"
   xmlns:sodipodi="http://sodipodi.sourceforge.net/DTD/sodipodi-0.dtd"
   xmlns="http://www.w3.org/2000/svg"
   xmlns:svg="http://www.w3.org/2000/svg">
  <sodipodi:namedview
     id="namedview1"
     pagecolor="#ffffff"
     bordercolor="#111111"
     borderopacity="1"
     inkscape:showpageshadow="0"
     inkscape:pageopacity="0"
     inkscape:pagecheckerboard="1"
     inkscape:deskcolor="#d1d1d1"
     inkscape:document-units="mm"
     inkscape:zoom="3.8753182"
     inkscape:cx="65.284962"
     inkscape:cy="70.574851"
     inkscape:window-width="1920"
     inkscape:window-height="974"
     inkscape:window-x="-11"
     inkscape:window-y="-11"
     inkscape:window-maximized="1"
     inkscape:current-layer="layer1" />
  <defs
     id="defs1" />
  <g
     inkscape:label="Layer 1"
     inkscape:groupmode="layer"
     id="layer1"
     transform="translate(-49.818616,-33.187073)">
    <path
       d="m 50.618616,37.570317 v 13.416752 c 0,1.661994 1.338339,2.999817 3.000333,2.999817 H 79.44373 c 1.661995,0 2.997261,-1.337826 3.000333,-2.999817 l 0.02429,-13.058118 c -4.979185,3.517939 -8.366359,7.042257 -13.342338,10.56473 -0.645888,0.457251 -1.489742,0.684762 -2.332674,0.683162 -0.842932,0.0016 -1.686786,-0.225911 -2.332674,-0.683162 z"
       style="fill:none;stroke:#000000;stroke-width:1.6;stroke-linejoin:bevel;paint-order:stroke markers fill"
       id="path8"
       sodipodi:nodetypes="cssscccccc" />
    <path
       d="m 53.637036,33.987073 c -1.661996,0 -3.000334,1.337819 -3.000334,2.999817 v 0.583427 l 13.84205,10.923364 c 1.287274,0.911315 3.359986,0.911315 4.647261,0 L 82.46215,37.928951 V 36.98689 c 0,-1.661998 -1.338336,-2.999817 -3.000334,-2.999817 z"
       style="fill:none;stroke:#000000;stroke-width:1.6;stroke-linejoin:round;paint-order:stroke markers fill"
       id="path7"
       sodipodi:nodetypes="ssccccsss" />
    <path
       d="m 66.889895,45.999307 q -1.156389,0 -2.116605,-0.382022 -0.949891,-0.382021 -1.651984,-1.084114 -0.702093,-0.702093 -1.084114,-1.651984 -0.382021,-0.960216 -0.382021,-2.116604 0,-1.146064 0.382021,-2.10628 0.382021,-0.960216 1.084114,-1.662309 0.702093,-0.702093 1.651984,-1.084114 0.960216,-0.382022 2.116605,-0.382022 1.146064,0 2.106279,0.382022 0.960216,0.382021 1.662309,1.084114 0.702093,0.702093 1.084115,1.662309 0.382021,0.960216 0.382021,2.10628 0,0.94989 -0.258123,1.682958 -0.258122,0.722743 -0.712418,1.135739 -0.44397,0.412996 -1.042815,0.412996 -0.526569,0 -0.867291,-0.320072 -0.330397,-0.309747 -0.330397,-0.815667 v -0.392346 q -0.196173,0.330397 -0.536895,0.588519 -0.330397,0.247798 -0.733068,0.392346 -0.392346,0.144549 -0.795017,0.144549 -0.815667,0 -1.445486,-0.361371 -0.629819,-0.361372 -0.980865,-1.001516 -0.351047,-0.640143 -0.351047,-1.466135 0,-0.825992 0.361372,-1.455811 0.361371,-0.640144 0.99119,-1.001516 0.640144,-0.371696 1.466136,-0.371696 0.825992,0 1.455811,0.371696 0.640143,0.361372 1.001515,1.001516 0.361371,0.629819 0.361371,1.455811 v 1.775882 q 0,0.330397 0.113574,0.495595 0.123899,0.154874 0.340722,0.154874 0.330397,0 0.588519,-0.309747 0.268448,-0.309747 0.412996,-0.856967 0.154874,-0.547219 0.154874,-1.259637 0,-0.970541 -0.330397,-1.775883 -0.320072,-0.815667 -0.918916,-1.404187 -0.588519,-0.598844 -1.404187,-0.918916 -0.805342,-0.330396 -1.775882,-0.330396 -0.980866,0 -1.796533,0.330396 -0.805342,0.320072 -1.404186,0.918916 -0.588519,0.58852 -0.908591,1.404187 -0.320072,0.805342 -0.320072,1.775883 0,0.980865 0.320072,1.796532 0.320072,0.805342 0.908591,1.393862 0.598844,0.598844 1.404186,0.918916 0.815667,0.320071 1.796533,0.320071 0.454295,0 0.960215,-0.103249 0.516245,-0.103249 0.856967,-0.268447 0.268447,-0.123899 0.433646,-0.0413 0.175523,0.09292 0.175523,0.361371 0,0.216823 -0.309747,0.412996 -0.309747,0.196173 -0.856967,0.320072 -0.547219,0.123899 -1.259637,0.1239 z m 0,-3.221369 q 0.588519,0 1.042815,-0.247798 0.454295,-0.258122 0.712418,-0.712418 0.258122,-0.454295 0.258122,-1.053139 0,-0.58852 -0.258122,-1.042815 -0.258123,-0.454296 -0.712418,-0.712418 -0.454296,-0.258123 -1.042815,-0.258123 -0.598844,0 -1.05314,0.258123 -0.454296,0.258122 -0.712418,0.712418 -0.247798,0.454295 -0.247798,1.042815 0,0.598844 0.247798,1.053139 0.258122,0.454296 0.712418,0.712418 0.454296,0.247798 1.05314,0.247798 z"
       id="text2"
       style="font-size:10.3249px;font-family:Comfortaa;-inkscape-font-specification:Comfortaa;stroke:#000000;stroke-width:0.8;paint-order:stroke markers fill"
       aria-label="@" />
  </g>
</svg>
